#!OML:ASF C:\Vicon Data\Big\jianyuan-12\jianyuan\Session 1\Capture.male.ASF
:FULLY-SPECIFIED
:DEGREES
167
root -7.056083 17.161364 -10.302632 6.569850 2.229631 7.624424
lowerback -11.797513 1.160752 -9.338284 
upperback 1.194095 3.039919 -3.095061 
thorax 7.621429 1.113086 2.485703 
lowerneck -4.045497 -6.102135 -5.583380 
upperneck 7.667427 -8.558740 8.097250 
head 3.533061 -4.116349 2.958833 
rclavicle 0.000000 0.000000 
rhumerus -36.843680 -28.162790 -78.620068 
rradius 35.104740 
rwrist 35.043632 
rhand -18.387870 -5.009617 
rfingers 0.000000 
rthumb 7.896021 -34.842116 
lclavicle 0.000000 0.000000 
lhumerus -40.796868 34.926461 69.990481 
lradius 27.273885 
lwrist -52.543973 
lhand -8.411124 4.580818 
lfingers 0.000000 
lthumb 17.513243 33.811970 
rfemur -11.378278 -8.342860 8.246613 
rtibia 61.796243 
rfoot -0.620635 -10.564128 
rtoes -3.686164 
lfemur -21.673394 -2.496890 -31.072877 
ltibia 22.597226 
lfoot -14.305797 4.610032 
ltoes -16.138412 
168
root -7.036748 17.163524 -10.236741 6.564446 2.122018 7.720645
lowerback -11.737428 1.121002 -9.369262 
upperback 1.194700 2.984616 -3.120167 
thorax 7.593743 1.086317 2.464556 
lowerneck -4.069986 -6.038664 -5.649866 
upperneck 7.596988 -8.462353 8.113193 
head 3.512631 -4.069727 2.979986 
rclavicle 0.000000 0.000000 
rhumerus -37.132274 -28.432958 -78.299047 
rradius 34.832891 
rwrist 35.608217 
rhand -18.143002 -4.786327 
rfingers 0.000000 
rthumb 8.132297 -34.609815 
lclavicle 0.000000 0.000000 
lhumerus -40.365027 34.672221 70.441780 
lradius 27.414031 
lwrist -52.183271 
lhand -8.428957 4.654176 
lfingers 0.000000 
lthumb 17.496015 33.886819 
rfemur -12.265690 -8.583735 8.073020 
rtibia 62.972002 
rfoot -0.470908 -11.628884 
rtoes -2.035261 
lfemur -21.355438 -2.518669 -31.237171 
ltibia 22.495756 
lfoot -14.556127 4.584713 
ltoes -16.181416 
169
root -7.017406 17.164771 -10.170881 6.505776 2.005855 7.858691
lowerback -11.654822 1.075407 -9.496856 
upperback 1.234223 2.934592 -3.127493 
thorax 7.590029 1.055612 2.516308 
lowerneck -4.134589 -5.973509 -5.635890 
upperneck 7.506957 -8.360382 8.070979 
head 3.486759 -4.019389 2.970070 
rclavicle 0.000000 0.000000 
rhumerus -37.410868 -28.709908 -77.969301 
rradius 34.503383 
rwrist 36.621808 
rhand -18.208384 -4.566293 
rfingers 0.000000 
rthumb 8.069180 -34.392242 
lclavicle 0.000000 0.000000 
lhumerus -39.907618 34.376558 71.003131 
lradius 27.610781 
lwrist -51.618674 
lhand -8.517022 4.757051 
lfingers 0.000000 
lthumb 17.411296 33.997234 
rfemur -13.058429 -8.817974 7.875245 
rtibia 64.100553 
rfoot -0.888941 -12.458735 
rtoes -1.141195 
lfemur -20.992135 -2.420131 -31.470284 
ltibia 22.428795 
lfoot -14.784115 4.493445 
ltoes -16.180665 
170
root -6.997434 17.165575 -10.105109 6.409628 1.909355 7.954828
lowerback -11.532643 1.016237 -9.551523 
upperback 1.284130 2.852726 -3.141487 
thorax 7.581984 1.012858 2.514238 
lowerneck -4.133591 -5.904906 -5.607878 
upperneck 7.342954 -8.252860 8.032975 
head 3.427081 -3.968277 2.962419 
rclavicle 0.000000 0.000000 
rhumerus -37.607846 -28.958019 -77.765326 
rradius 34.202739 
rwrist 37.091341 
rhand -18.255666 -4.515992 
rfingers 0.000000 
rthumb 8.023588 -34.343680 
lclavicle 0.000000 0.000000 
lhumerus -39.463394 34.120907 71.454394 
lradius 27.745286 
lwrist -51.227989 
lhand -8.627429 4.753742 
lfingers 0.000000 
lthumb 17.305060 34.003286 
rfemur -13.787869 -9.048584 7.718638 
rtibia 65.189673 
rfoot -1.774423 -13.174220 
rtoes -0.254048 
lfemur -20.591736 -2.464110 -31.629024 
ltibia 22.369683 
lfoot -15.073853 4.517908 
ltoes -16.046366 
171
root -6.977750 17.167296 -10.039321 6.273911 1.847745 8.024982
lowerback -11.368739 0.971552 -9.572624 
upperback 1.344433 2.781157 -3.155229 
thorax 7.561586 0.977013 2.494649 
lowerneck -4.212931 -5.858511 -5.556485 
upperneck 7.290796 -8.177164 7.944661 
head 3.413553 -3.930852 2.930156 
rclavicle 0.000000 0.000000 
rhumerus -37.789143 -29.143184 -77.639337 
rradius 34.010002 
rwrist 37.095258 
rhand -18.232355 -4.643257 
rfingers 0.000000 
rthumb 8.046095 -34.470126 
lclavicle 0.000000 0.000000 
lhumerus -38.979998 33.742004 71.945390 
lradius 27.896304 
lwrist -50.738981 
lhand -8.664492 4.762406 
lfingers 0.000000 
lthumb 17.269377 34.015074 
rfemur -14.456153 -9.292086 7.609636 
rtibia 66.217865 
rfoot -2.890035 -13.777417 
rtoes 0.563340 
lfemur -20.152892 -2.539424 -31.756747 
ltibia 22.327525 
lfoot -15.354111 4.568389 
ltoes -15.973125 
172
root -6.957559 17.169017 -9.976259 6.214091 1.772131 8.105318
lowerback -11.247169 0.920238 -9.602650 
upperback 1.372518 2.703954 -3.163186 
thorax 7.530286 0.939114 2.486486 
lowerneck -4.309290 -5.802282 -5.596178 
upperneck 7.284604 -8.095022 7.966451 
head 3.424437 -3.887934 2.944989 
rclavicle 0.000000 0.000000 
rhumerus -38.004395 -29.284128 -77.447815 
rradius 33.814305 
rwrist 37.386197 
rhand -18.174216 -4.723241 
rfingers 0.000000 
rthumb 8.102212 -34.547934 
lclavicle 0.000000 0.000000 
lhumerus -38.511215 33.362893 72.435745 
lradius 28.050932 
lwrist -50.241710 
lhand -8.622159 4.717905 
lfingers 0.000000 
lthumb 17.310153 33.967029 
rfemur -15.238246 -9.577984 7.521033 
rtibia 67.196996 
rfoot -4.050750 -14.244681 
rtoes -0.089303 
lfemur -19.812087 -2.652936 -31.897938 
ltibia 22.295830 
lfoot -15.636375 4.672791 
ltoes -15.974247 
173
root -6.939307 17.170246 -9.911772 6.159412 1.736111 8.104513
lowerback -11.164175 0.865858 -9.573533 
upperback 1.412597 2.620209 -3.148718 
thorax 7.536005 0.898585 2.469907 
lowerneck -4.326697 -5.723346 -5.399539 
upperneck 7.160970 -7.977127 7.800635 
head 3.367638 -3.831132 2.871307 
rclavicle 0.000000 0.000000 
rhumerus -38.330690 -29.662979 -77.034961 
rradius 33.552161 
rwrist 38.492062 
rhand -18.143277 -4.487360 
rfingers 0.000000 
rthumb 8.132020 -34.310916 
lclavicle 0.000000 0.000000 
lhumerus -38.014555 32.931414 72.994236 
lradius 28.236420 
lwrist -49.643956 
lhand -8.687242 4.810144 
lfingers 0.000000 
lthumb 17.247470 34.064735 
rfemur -16.021422 -9.869936 7.537750 
rtibia 68.129251 
rfoot -5.478397 -14.539040 
rtoes -0.767623 
lfemur -19.474402 -2.615784 -31.965265 
ltibia 22.242464 
lfoot -15.826178 4.514094 
ltoes -15.517117 
174
root -6.921777 17.172366 -9.848018 6.074325 1.673748 8.150881
lowerback -11.047511 0.796511 -9.640671 
upperback 1.465920 2.523989 -3.089267 
thorax 7.532737 0.847287 2.551734 
lowerneck -4.324021 -5.659720 -5.445264 
upperneck 7.030311 -7.877265 7.797131 
head 3.322831 -3.784005 2.884792 
rclavicle 0.000000 0.000000 
rhumerus -38.603881 -30.110113 -76.525289 
rradius 33.164166 
rwrist 39.684516 
rhand -18.281760 -4.185712 
rfingers 0.000000 
rthumb 7.998365 -34.014362 
lclavicle 0.000000 0.000000 
lhumerus -37.550440 32.592579 73.588946 
lradius 28.407911 
lwrist -49.164643 
lhand -8.815456 4.946308 
lfingers 0.000000 
lthumb 17.124099 34.211682 
rfemur -16.768401 -10.083712 7.514912 
rtibia 69.005084 
rfoot -6.876460 -14.685990 
rtoes -1.269987 
lfemur -19.093581 -2.621978 -32.081008 
ltibia 22.180324 
lfoot -16.064858 4.477653 
ltoes -15.314615 
175
root -6.904790 17.176309 -9.784194 6.062336 1.644806 8.168289
lowerback -11.065700 0.717516 -9.655855 
upperback 1.554343 2.429526 -3.043541 
thorax 7.647838 0.792948 2.594231 
lowerneck -4.442377 -5.592559 -5.608377 
upperneck 6.931293 -7.768662 7.885206 
head 3.315105 -3.728746 2.941247 
rclavicle 0.000000 0.000000 
rhumerus -38.604843 -29.843286 -76.644622 
rradius 33.176251 
rwrist 38.925750 
rhand -18.251935 -4.675985 
rfingers 0.000000 
rthumb 8.027184 -34.503573 
lclavicle 0.000000 0.000000 
lhumerus -37.011031 32.398259 74.133527 
lradius 28.575072 
lwrist -48.878059 
lhand -8.912194 5.058891 
lfingers 0.000000 
lthumb 17.030979 34.332314 
rfemur -17.607865 -10.335935 7.564382 
rtibia 69.809057 
rfoot -8.026050 -14.705573 
rtoes -1.723688 
lfemur -18.769861 -2.803479 -32.141713 
ltibia 22.080645 
lfoot -16.356593 4.610384 
ltoes -15.353934 
176
root -6.890222 17.181615 -9.719075 5.962619 1.636660 8.136768
lowerback -10.981094 0.659529 -9.603352 
upperback 1.643809 2.341998 -3.025228 
thorax 7.707692 0.747996 2.568480 
lowerneck -4.559655 -5.549426 -5.694609 
upperneck 6.902942 -7.701461 7.947399 
head 3.327107 -3.692569 2.974615 
rclavicle 0.000000 0.000000 
rhumerus -38.762182 -30.214328 -76.420619 
rradius 32.925546 
rwrist 39.464280 
rhand -18.378639 -4.732352 
rfingers 0.000000 
rthumb 7.904928 -34.564569 
lclavicle 0.000000 0.000000 
lhumerus -36.448933 32.081774 74.552944 
lradius 28.632347 
lwrist -48.592851 
lhand -8.982024 4.913727 
lfingers 0.000000 
lthumb 16.963719 34.192975 
rfemur -18.322808 -10.568948 7.660301 
rtibia 70.535989 
rfoot -9.141625 -14.557906 
rtoes -2.181597 
lfemur -18.343510 -2.772616 -32.168161 
ltibia 21.964024 
lfoot -16.553014 4.543609 
ltoes -15.347955 
177
root -6.873718 17.185156 -9.655829 5.936456 1.626353 8.173726
lowerback -10.918974 0.609933 -9.605715 
upperback 1.683850 2.271957 -3.028179 
thorax 7.723630 0.712289 2.553630 
lowerneck -4.573096 -5.527477 -5.801271 
upperneck 6.799323 -7.665128 8.055367 
head 3.304013 -3.673958 3.027139 
rclavicle 0.000000 0.000000 
rhumerus -39.053603 -30.536526 -76.095420 
rradius 32.730638 
rwrist 40.121781 
rhand -18.404360 -4.627371 
rfingers 0.000000 
rthumb 7.880115 -34.460486 
lclavicle 0.000000 0.000000 
lhumerus -35.964944 31.763460 74.927007 
lradius 28.714272 
lwrist -48.437155 
lhand -8.954726 4.705858 
lfingers 0.000000 
lthumb 16.990002 33.982788 
rfemur -19.142798 -10.760443 7.690516 
rtibia 71.201704 
rfoot -10.042853 -14.378838 
rtoes -2.541660 
lfemur -18.007084 -2.753831 -32.278030 
ltibia 21.851948 
lfoot -16.738470 4.483168 
ltoes -15.311564 
178
root -6.859165 17.189000 -9.592414 5.910014 1.648696 8.114925
lowerback -10.859219 0.548098 -9.522669 
upperback 1.725455 2.173806 -3.000642 
thorax 7.746945 0.666404 2.519640 
lowerneck -4.509700 -5.499085 -5.823348 
upperneck 6.601805 -7.612831 8.049903 
head 3.231287 -3.651959 3.035886 
rclavicle 0.000000 0.000000 
rhumerus -39.349976 -30.677849 -75.889254 
rradius 32.720568 
rwrist 40.467979 
rhand -18.313130 -4.588150 
rfingers 0.000000 
rthumb 7.968112 -34.417967 
lclavicle 0.000000 0.000000 
lhumerus -35.519370 31.555054 75.257922 
lradius 28.825858 
lwrist -48.457332 
lhand -8.934422 4.630963 
lfingers 0.000000 
lthumb 17.009559 33.906183 
rfemur -19.938657 -10.921831 7.852389 
rtibia 71.779457 
rfoot -10.710088 -14.202262 
rtoes -2.306410 
lfemur -17.668631 -2.713764 -32.286182 
ltibia 21.734229 
lfoot -16.894692 4.437186 
ltoes -15.585082 
179
root -6.843291 17.193875 -9.528932 5.881750 1.632055 8.116309
lowerback -10.785590 0.487004 -9.517570 
upperback 1.751476 2.083485 -2.974321 
thorax 7.742224 0.622186 2.528461 
lowerneck -4.497078 -5.462278 -5.825521 
upperneck 6.493324 -7.551103 8.003993 
head 3.190632 -3.624069 3.027348 
rclavicle 0.000000 0.000000 
rhumerus -39.604381 -30.815512 -75.718446 
rradius 32.719194 
rwrist 40.441326 
rhand -18.282402 -4.707931 
rfingers 0.000000 
rthumb 7.997743 -34.536654 
lclavicle 0.000000 0.000000 
lhumerus -35.088541 31.343745 75.618690 
lradius 29.004410 
lwrist -48.280673 
lhand -8.780933 4.625967 
lfingers 0.000000 
lthumb 17.157341 33.888409 
rfemur -20.760125 -11.039790 7.925099 
rtibia 72.292135 
rfoot -11.150627 -13.909708 
rtoes -2.791017 
lfemur -17.328387 -2.742423 -32.351268 
ltibia 21.610958 
lfoot -17.078073 4.471324 
ltoes -15.777583 
